<?xml version="1.0" encoding="iso-8859-1"?>
<!-- Generator: Adobe Illustrator 19.0.0, SVG Export Plug-In . SVG Version: 6.00 Build 0)  -->
<svg version="1.1" id="Capa_1" xmlns="http://www.w3.org/2000/svg" xmlns:xlink="http://www.w3.org/1999/xlink" x="0px" y="0px"
	 viewBox="0 0 512 512" style="enable-background:new 0 0 512 512;" xml:space="preserve">
<g>
	<g>
		<path d="M256.011,145.065c-31.613,0-57.213,25.464-57.213,56.884c0,31.415,25.599,56.895,57.213,56.895
			c31.596,0,57.208-25.481,57.208-56.895C313.219,170.528,287.607,145.065,256.011,145.065z M256.011,241.777
			c-22.079,0-40.044-17.868-40.044-39.828c0-21.954,17.966-39.817,40.044-39.817c22.079,0,40.038,17.863,40.038,39.817
			C296.05,223.909,278.09,241.777,256.011,241.777z"/>
	</g>
</g>
<g>
	<g>
		<path d="M330.029,48.356c-25.293,0-45.773,20.372-45.773,45.505c0,25.138,20.474,45.516,45.773,45.516
			c25.27,0,45.762-20.378,45.762-45.516C375.791,68.728,355.3,48.356,330.029,48.356z M330.029,122.311
			c-15.775,0-28.609-12.766-28.609-28.45c-0.006-15.679,12.828-28.439,28.609-28.439c15.77,0,28.593,12.76,28.593,28.439
			C358.622,109.545,345.799,122.311,330.029,122.311z"/>
	</g>
</g>
<g>
	<g>
		<path d="M473.537,266.035c-5.655,0-10.871,1.371-15.508,3.436c-7.026-8.955-17.943-14.746-30.254-14.757
			c-6.366-0.006-12.214,1.678-17.243,4.193l-16.242,9.563c-7.048-8.38-17.602-13.75-29.446-13.756
			c-6.365-0.006-12.208,1.678-17.238,4.193l-58.459,35.572c-14.188-4.176-75.805-21.556-87.654-24.53
			c-5.945-1.49-11.133-2.714-15.382-3.584c-2.127-0.432-4.016-0.785-5.695-1.041c-1.701-0.25-3.118-0.426-4.722-0.432
			c-1.235,0.006-2.298,0.12-3.522,0.262c-4.431,0.586-10.735,1.929-18.17,3.657c-15.195,3.555-34.594,8.715-45.306,11.617v-15.895
			c0-12.515-10.291-22.756-22.875-22.756H22.88c-12.577,0-22.88,10.24-22.88,22.756v176.356c0,12.515,10.303,22.756,22.88,22.756
			h62.93c12.59,0,22.875-10.24,22.875-22.756v-13.693c13.579,2.941,43.725,9.415,75.503,15.906
			c21.492,4.386,43.708,8.778,62.049,12.089c9.176,1.65,17.391,3.032,24.104,4.01c6.775,0.978,11.833,1.581,15.684,1.599
			c2.998-0.011,5.831-0.581,8.897-1.411c5.706-1.599,12.197-4.312,19.627-7.902c25.861-12.539,63.005-36.033,98.042-59.279
			c34.975-23.211,67.686-46.142,83.718-57.117c10.046-6.884,15.69-18.5,15.69-30.799
			C511.988,283.169,494.791,266.04,473.537,266.035z M91.534,440.888c0,3.083-2.623,5.689-5.723,5.689H22.88
			c-3.1,0-5.723-2.606-5.723-5.689V264.533c0-3.083,2.623-5.689,5.723-5.689h62.93c3.1,0,5.723,2.606,5.723,5.689V440.888z
			 M486.599,321.034c-19.718,13.506-63.83,44.481-106.53,72.055c-21.328,13.779-42.314,26.698-59.517,36.068
			c-8.59,4.682-16.253,8.471-22.386,10.997c-3.06,1.269-5.74,2.213-7.862,2.799c-2.111,0.597-3.697,0.796-4.278,0.785
			c-1.872,0.017-6.826-0.477-13.187-1.417c-22.545-3.282-64.734-11.663-101.058-19.194c-18.176-3.772-34.929-7.327-47.133-9.95
			c-7.088-1.519-12.567-2.708-15.969-3.442v-111.61c1.672-0.455,3.874-1.053,6.514-1.769c9.046-2.44,22.852-6.099,35.231-9.13
			c6.178-1.519,12.02-2.872,16.663-3.834c2.315-0.477,4.329-0.854,5.882-1.098c1.524-0.256,2.702-0.341,2.714-0.33
			c0.034-0.006,0.933,0.051,2.156,0.239c4.733,0.705,14.444,2.963,26.266,6.047c35.636,9.25,91.824,25.981,114.523,32.842
			c7.851,2.355,14.967,5.905,19.627,10.212c2.349,2.151,4.107,4.449,5.291,6.935c1.189,2.497,1.854,5.205,1.866,8.505
			c-0.006,6.695-2.702,12.681-7.117,17.078c-4.38,4.34-10.331,7.003-16.981,7.059l-22.135-2.156l-75.571-9.643
			c-4.704-0.597-9.011,2.702-9.609,7.373c-0.597,4.677,2.725,8.955,7.424,9.552l75.816,9.676l23.467,2.287h0.421
			c22.887-0.011,41.444-18.455,41.455-41.222c0.011-5.735-1.269-11.11-3.527-15.832c-3.402-7.105-8.88-12.607-15.064-16.794
			c-6.212-4.198-13.221-7.19-20.366-9.352c-3.424-1.036-7.635-2.304-12.384-3.721l44.214-26.937
			c3.021-1.485,6.116-2.321,9.387-2.327c5.547-0.006,10.552,2.133,14.342,5.593l-23.011,13.568
			c-4.074,2.401-5.416,7.64-2.998,11.696c2.424,4.05,7.686,5.387,11.759,2.981l53.402-31.494c3.038-1.502,6.15-2.338,9.438-2.344
			c5.922-0.006,11.246,2.446,15.098,6.338L380.687,314.8c-4.079,2.401-5.422,7.64-2.998,11.696c2.418,4.05,7.68,5.387,11.753,2.981
			l74.666-44.037c3.032-1.485,6.138-2.327,9.421-2.333c5.899,0.006,11.179,2.355,15.053,6.212c3.868,3.863,6.241,9.108,6.247,14.985
			C494.836,311.443,491.536,317.689,486.599,321.034z"/>
	</g>
</g>
<g>
</g>
<g>
</g>
<g>
</g>
<g>
</g>
<g>
</g>
<g>
</g>
<g>
</g>
<g>
</g>
<g>
</g>
<g>
</g>
<g>
</g>
<g>
</g>
<g>
</g>
<g>
</g>
<g>
</g>
</svg>
