<?xml version="1.0" encoding="iso-8859-1"?>
<!-- Generator: Adobe Illustrator 19.0.0, SVG Export Plug-In . SVG Version: 6.00 Build 0)  -->
<svg version="1.1" id="Capa_1" xmlns="http://www.w3.org/2000/svg" xmlns:xlink="http://www.w3.org/1999/xlink" x="0px" y="0px"
	 viewBox="0 0 502.4 502.4" style="enable-background:new 0 0 502.4 502.4;" xml:space="preserve">
<g>
	<g>
		<path d="M501,266.8c-2.6-12.3-15.9-22.2-40-29.5c-20.2-6.1-45.6-9.7-73.6-10.3l-2.7-113.8c-3.7-11.2-17-20.3-39.5-27.1
			c-22.5-6.8-51.8-10.5-82.7-10.5c-30.8,0-59.9,3.7-81.9,10.5c-18.1,5.6-39.8,16-39.8,33.9c0,1.1,0.1,2.2,0.3,3.3l1.1,45.6
			c-7.4-1.4-14.9-2.1-22.5-2.1C53.7,166.8,0,220.5,0,286.5c0,66.1,53.5,119.7,119.6,119.7c27.5,0,54.2-9.5,75.5-26.8
			c18.8,4.4,40.9,6.8,64.3,7c5.1,27.7,65.2,40.4,121.2,40.4c30.8,0,59.8-3.8,82-10.6c18.3-5.6,39.8-16.1,39.8-34L501,266.8z
			 M186.2,105.3c20.2-6.2,47.3-9.7,76.1-9.7c28.5,0,56.6,3.5,77,9.7c21.8,6.6,26.5,13.4,26.5,14.8c0,1.4-4.7,8.2-26.5,14.8
			c-20.3,6.1-48.4,9.7-76.9,9.7c-27.6,0-53.8-3.2-73.7-9c-21.5-6.2-27.6-13.1-28.1-15.3c0-0.1-0.1-0.2-0.2-0.3
			C160.4,117.9,167.1,111.2,186.2,105.3z M367.4,144.8v25c-1.1,1.7-1.6,3.6-1.6,5.6c0,1.3-4.7,8.2-26.4,14.8
			c-20.3,6.2-48.4,9.7-76.9,9.7c-24.7,0-48.9-2.6-68.1-7.5c-0.3-0.1-0.6-0.1-0.8-0.2c-9.4-7.5-20-13.5-31.2-17.7l-0.7-28.2
			c6.9,3.5,14.1,6.3,21.6,8.3c21.7,6.3,49.8,9.7,79.3,9.7c30.9,0,60.2-3.7,82.6-10.5C352.8,151.8,360.3,148.7,367.4,144.8z
			 M186.7,360.2c-40.7,37.1-103.8,34.1-140.8-6.6s-34.1-103.8,6.6-140.8c18.4-16.7,42.3-26,67.1-26c10,0,19.9,1.5,29.5,4.4
			c13,4,25.1,10.7,35.4,19.7c16.8,14.3,28.3,33.9,32.8,55.5c1.3,6.6,2,13.4,2,20.1C219.4,314.6,207.5,341.4,186.7,360.2z
			 M212.1,362.4c8.1-9.9,14.6-21,19.2-32.9c8.6,0.7,17.6,1.2,26.9,1.3c-0.2,1.2-0.2,2.3,0,3.5l0.4,32.2
			C243.1,366.3,227.6,365,212.1,362.4z M238.8,274.6c5.9,0.4,12,0.6,18.3,0.7c0.1,0.7,0.3,1.4,0.5,2.1l0.4,33.3
			c-7.2-0.1-14.3-0.4-21-0.9c1.5-7.7,2.3-15.6,2.3-23.4C239.3,282.5,239.1,278.6,238.8,274.6z M263.2,255.4c-0.3,0-0.5,0-0.8,0
			c-9.7,0-18.9-0.4-27.5-1.1c-3.7-13.3-9.8-25.9-17.8-37.2c15,1.9,30.2,2.9,45.3,2.9c30.9,0,60.2-3.7,82.6-10.5
			c7.8-2.2,15.2-5.3,22.3-9.2V227c-25,0.7-48.5,3.9-67.2,9.2C282.5,241.2,270.2,247.6,263.2,255.4z M277,270.3
			c1.7-3.1,9.2-9.2,28.7-14.6c19.6-5.5,45.1-8.5,71.9-8.5h0.8c28.6,0,56.6,3.3,76.9,9.5c21,6.4,26.1,12.8,26.4,14.5v0.1
			c-0.1,1.5-5,8.4-27.2,15c-20.5,6.1-47.6,9.4-76.1,9.4c-26.5,0-52-3-71.6-8.3c-18.8-5.1-26.9-11-29.3-14.4
			C277.5,272.1,277.3,271.2,277,270.3z M482.4,382.1c0,1.4-4.4,8.3-25.7,14.9c-20.4,6.3-47.4,9.8-76.2,9.8
			c-28.9,0-55.8-3.4-75.9-9.5c-19.1-5.9-25.5-12.5-25.5-14.7c0-0.1,0-0.1,0-0.2l-0.1-6.1l-0.3-22.6c8,3.9,16.3,6.9,24.9,9
			c21,5.5,47.5,8.5,74.8,8.5c30.9,0,59.9-3.7,82.3-10.5c7.3-2.2,15.7-5.2,21.7-9.1V382.1z M481.1,326.7c0,1.4-4.6,8.2-26.1,14.8
			c-20.5,6.2-47.7,9.6-76.7,9.6c-54.4,0-91.4-12.1-100-21.7l-0.4-31.6c23.6,12.3,63.3,17.9,100.5,17.9c30.4,0,59.3-3.6,81.6-10.2
			c7.8-2.2,15.3-5.2,22.5-9.1v25h0C482.4,322.9,481.1,324.7,481.1,326.7z"/>
	</g>
</g>
<g>
	<g>
		<path d="M119.7,220.4c-36.5,0-66,29.6-66,66c0,36.4,29.6,66,66,66c36.4,0,66-29.6,66-66C185.6,250,156.1,220.5,119.7,220.4z
			 M119.7,332.5c-25.4,0-46-20.6-46-46c0-25.4,20.6-46,46-46c25.4,0,46,20.6,46,46C165.7,311.9,145.1,332.5,119.7,332.5z"/>
	</g>
</g>
<g>
</g>
<g>
</g>
<g>
</g>
<g>
</g>
<g>
</g>
<g>
</g>
<g>
</g>
<g>
</g>
<g>
</g>
<g>
</g>
<g>
</g>
<g>
</g>
<g>
</g>
<g>
</g>
<g>
</g>
</svg>
