<svg height="512pt" viewBox="-20 0 512 512.00175" width="512pt" xmlns="http://www.w3.org/2000/svg"><path d="m469.070312 212.347656-90.542968-90.421875c-1.875-1.875-4.417969-2.925781-7.066406-2.925781h-21.652344l25.738281-25.738281c3.90625-3.90625 3.90625-10.238281 0-14.140625l-76.191406-76.191406c-3.90625-3.90625-10.238281-3.90625-14.144531 0l-31.636719 31.640624-84.539063 84.535157c-.449218-.0625-.902344-.105469-1.367187-.105469h-67.300781c-2.65625 0-5.199219 1.054688-7.074219 2.933594l-90.363281 90.417968v.003907c-1.808594 1.808593-2.929688 4.308593-2.929688 7.070312v282.574219c0 5.523438 4.476562 10 10 10h452.003906c5.523438 0 10-4.476562 10-10v-101.285156c0-5.523438-4.476562-10-10-10-5.523437 0-10 4.476562-10 10v91.285156h-432.003906v-262.574219h432.003906v91.285157c0 5.523437 4.476563 10 10 10 5.523438 0 10-4.476563 10-10v-101.285157c0-2.765625-1.125-5.265625-2.933594-7.078125zm-201.355468-163.636718 24.570312-24.570313 62.046875 62.050781-78.019531 78.019532h-82.34375l-20.878906-20.875zm-233.585938 160.714843 70.378906-70.425781h45.4375c-1.792968 3.722656-1.15625 8.320312 1.929688 11.40625l13.808594 13.804688h-31.527344c-5.523438 0-10 4.480468-10 10 0 5.523437 4.476562 10 10 10h203.6875c5.523438 0 10-4.476563 10-10 0-5.519532-4.476562-10-10-10h-33.25l25.214844-25.210938h37.511718l70.515626 70.425781zm0 0"/><path d="m148 360.710938c0 48.523437 39.476562 88.003906 88 88.003906s88-39.480469 88-88.003906c0-48.519532-39.476562-88-88-88s-88 39.476562-88 88zm156 0c0 37.496093-30.503906 68.003906-68 68.003906-37.492188 0-68-30.507813-68-68.003906 0-37.492188 30.507812-68 68-68 37.496094 0 68 30.503906 68 68zm0 0"/><path d="m212.058594 349.027344c-3.90625-3.90625-10.238282-3.90625-14.144532 0-3.902343 3.90625-3.902343 10.238281 0 14.140625l21.941407 21.9375c1.953125 1.953125 4.511719 2.929687 7.070312 2.929687 2.558594 0 5.117188-.976562 7.070313-2.929687l40.089844-40.089844c3.90625-3.902344 3.90625-10.234375 0-14.140625s-10.238282-3.90625-14.140626 0l-33.019531 33.019531zm0 0"/><path d="m462.003906 350.707031c-2.632812 0-5.210937 1.070313-7.070312 2.933594-1.859375 1.859375-2.929688 4.4375-2.929688 7.066406 0 2.640625 1.070313 5.210938 2.929688 7.082031 1.859375 1.859376 4.4375 2.917969 7.070312 2.917969 2.628906 0 5.207032-1.058593 7.070313-2.917969 1.859375-1.871093 2.929687-4.449218 2.929687-7.082031 0-2.628906-1.070312-5.199219-2.929687-7.066406-1.863281-1.863281-4.441407-2.933594-7.070313-2.933594zm0 0"/></svg>