<?xml version="1.0" encoding="utf-8"?>
<!-- Svg Vector Icons : http://www.onlinewebfonts.com/icon -->
<!DOCTYPE svg PUBLIC "-//W3C//DTD SVG 1.1//EN" "http://www.w3.org/Graphics/SVG/1.1/DTD/svg11.dtd">
<svg version="1.1" xmlns="http://www.w3.org/2000/svg" xmlns:xlink="http://www.w3.org/1999/xlink" x="0px" y="0px" viewBox="0 0 1000 1000" enable-background="new 0 0 1000 1000" xml:space="preserve">
<metadata> Svg Vector Icons : http://www.onlinewebfonts.com/icon </metadata>
<g><g transform="translate(0.000000,512.000000) scale(0.100000,-0.100000)"><path d="M4720.3,5013.1c-699-53.6-1311.9-214.5-1876.9-494.1C744.4,3481-322.4,1154,256-1119.3c365.8-1430.6,1428.7-2673.6,2788.5-3255.8c580.3-249,1139.5-375.4,1781.1-398.3c1355.9-53.6,2673.6,465.4,3638.8,1428.7C9475.6-2331.6,10008-881.8,9881.6,523.9c-103.4,1145.3-566.9,2169.9-1346.4,2980c-781.4,814-1792.6,1327.2-2886.2,1470.8C5423.1,5005.4,4892.6,5026.5,4720.3,5013.1z M5630,4363.8C8263.3,3963.6,9906.5,1286.2,9065.8-1238c-195.4-588-599.5-1246.8-1009.3-1643.2l-84.3-82.4l-51.7,149.4c-159,446.2-390.7,810.1-746.9,1164.4C6708.2-1184.4,6210.3-914.4,5584-788c-668.4,136-1342.5,53.6-1961.1-239.4c-718.2-340.9-1287-946.1-1574.3-1679.6c-38.3-97.7-74.7-183.9-80.4-189.6c-15.3-15.3-254.7,250.9-409.8,455.8C1012.5-1716.8,708-799.5,708,116c0,1440.2,716.3,2771.2,1926.7,3579.4c595.6,398.3,1241,622.4,2028.2,704.8C4819.9,4415.6,5434.6,4392.6,5630,4363.8z"/><path d="M4705,3433.1c-183.9-24.9-465.4-122.6-637.8-220.2C3642,2969.6,3349,2600,3205.4,2121.2c-70.9-241.3-84.3-609-30.6-869.5C3314.5,571.8,3824,35.6,4501.9-150.2c137.9-38.3,204.9-44,476.9-42.1c287.3,0,331.3,5.7,486.4,53.6c662.7,201.1,1137.6,710.5,1288.9,1378.9c47.9,206.8,42.1,589.9-11.5,804.4c-47.9,195.4-178.1,484.5-283.4,630.1c-256.6,356.2-649.2,622.4-1059.1,722C5208.6,3442.6,4888.8,3459.9,4705,3433.1z"/></g></g>
</svg>