<?xml version="1.0" encoding="utf-8"?>
<!-- Svg Vector Icons : http://www.onlinewebfonts.com/icon -->
<!DOCTYPE svg PUBLIC "-//W3C//DTD SVG 1.1//EN" "http://www.w3.org/Graphics/SVG/1.1/DTD/svg11.dtd">
<svg version="1.1" xmlns="http://www.w3.org/2000/svg" xmlns:xlink="http://www.w3.org/1999/xlink" x="0px" y="0px" viewBox="0 0 1000 1000" enable-background="new 0 0 1000 1000" xml:space="preserve">
<metadata> Svg Vector Icons : http://www.onlinewebfonts.com/icon </metadata>
<g><path d="M500,10C229.4,10,10,229.4,10,500c0,270.6,219.4,490,490,490c270.6,0,490-219.4,490-490C990,229.4,770.6,10,500,10z M500,947.4C252.9,947.4,52.6,747.1,52.6,500C52.6,252.9,252.9,52.6,500,52.6c247.1,0,447.4,200.3,447.4,447.4C947.4,747.1,747.1,947.4,500,947.4z"/><path d="M452.1,392.4c0-24.5,6.4-83.1,69.2-83.1c59.7,0,69.2,52.2,69.2,83.1v18.1h52.2v-18.1c0-81-46.9-133.2-120.4-133.2c-73.5,0-120.4,52.2-120.4,133.2v18.1h52.2v-18.1H452.1z M641.7,427.6H400.9c-28.8,0-52.2,22.4-52.2,51.1V647c0,27.7,23.4,51.1,52.2,51.1h240.7c28.8,0,52.2-22.4,52.2-51.1V478.7C693.9,451,670.4,427.6,641.7,427.6L641.7,427.6z M538.3,575.6V614c0,9.6-7.5,17-17,17c-9.6,0-17-7.5-17-17v-38.3c-10.7-5.3-17-17-17-28.8c0-18.1,14.9-34.1,34.1-34.1s34.1,14.9,34.1,34.1C555.4,558.6,549,569.2,538.3,575.6L538.3,575.6z"/></g>
</svg>