<svg width="362" height="226" viewBox="0 0 362 226" fill="none" xmlns="http://www.w3.org/2000/svg">
<path fill-rule="evenodd" clip-rule="evenodd" d="M38.9508 79.7062H36.9508V188.368C36.9508 208.881 53.5802 225.51 74.0935 225.51C94.6068 225.51 111.236 208.881 111.236 188.368V162.155H109.236V188.368C109.236 207.776 93.5022 223.51 74.0935 223.51C54.6847 223.51 38.9508 207.776 38.9508 188.368V79.7062Z" fill="black" fill-opacity="0.2"/>
<path fill-rule="evenodd" clip-rule="evenodd" d="M181.475 79.7062H179.475V188.368C179.475 208.881 196.104 225.51 216.618 225.51C237.131 225.51 253.76 208.881 253.76 188.368V162.155H251.76V188.368C251.76 207.776 236.026 223.51 216.618 223.51C197.209 223.51 181.475 207.776 181.475 188.368V79.7062Z" fill="black" fill-opacity="0.2"/>
<path fill-rule="evenodd" clip-rule="evenodd" d="M181.93 67.0777L183.93 67.0777L183.93 39.7378C183.93 19.2245 167.301 2.59521 146.788 2.59521C126.274 2.59521 109.645 19.2245 109.645 39.7378L109.645 131.909L111.645 131.909L111.645 39.7378C111.645 20.3291 127.379 4.5952 146.788 4.5952C166.196 4.59521 181.93 20.3291 181.93 39.7378L181.93 67.0777Z" fill="black" fill-opacity="0.2"/>
<path fill-rule="evenodd" clip-rule="evenodd" d="M324.318 71.0275L326.318 71.0275L326.318 38.7394C326.318 18.2261 309.689 1.5968 289.175 1.5968C268.662 1.5968 252.033 18.2261 252.033 38.7394L252.033 130.911L254.033 130.911L254.033 38.7394C254.033 19.3307 269.767 3.5968 289.175 3.5968C308.584 3.5968 324.318 19.3307 324.318 38.7394L324.318 71.0275Z" fill="black" fill-opacity="0.2"/>
<path d="M76.7404 41.0546C76.7404 62.0761 59.7808 79.1092 38.8702 79.1092C17.9595 79.1092 1 62.0761 1 41.0546C1 20.0332 17.9595 3 38.8702 3C59.7808 3 76.7404 20.0332 76.7404 41.0546Z" fill="black" stroke="black" stroke-width="2"/>
<ellipse cx="253.87" cy="153.055" rx="38.8702" ry="39.0546" fill="black"/>
<ellipse cx="180.87" cy="39.0546" rx="38.8702" ry="39.0546" fill="black"/>
<ellipse cx="322.87" cy="39.0546" rx="38.8702" ry="39.0546" fill="black"/>
<ellipse cx="109.87" cy="153.055" rx="38.8702" ry="39.0546" fill="black"/>
<g clip-path="url(#clip0)">
<path d="M306.236 27.5423C306.236 26.191 306.154 24.8803 306.031 23.5273H311.89L312.094 26.2758C312.745 25.3449 314.336 23.0627 318.468 23.0627C323.215 23.0627 324.564 26.0656 324.966 27.0777C326.676 23.6545 329.467 23.1051 331.596 23.1051C335.768 23.1051 337.445 25.684 337.895 26.5284C338.999 28.3884 338.921 30.9655 338.921 32.8255V44.5153H332.828V32.3274C332.828 30.0452 332.502 27.5087 329.352 27.5087C325.71 27.5087 325.628 31.0168 325.628 34.1874V44.5153H319.532V32.1913C319.532 30.5433 319.491 27.4999 316.136 27.4999C312.332 27.4999 312.332 30.8825 312.332 32.3274V44.5153H306.236V27.5423Z" fill="white"/>
<path d="M306.03 49.2107H338.925V54.4074H306.03V49.2107Z" fill="white"/>
</g>
<path d="M35.8702 38.1553C34.8945 38.1553 34.1243 39.029 34.1243 40.0949C34.1243 41.1608 34.9117 42.0345 35.8702 42.0345C36.8459 42.0345 37.6162 41.1608 37.6162 40.0949C37.6333 39.029 36.8459 38.1553 35.8702 38.1553ZM42.118 38.1553C41.1423 38.1553 40.372 39.029 40.372 40.0949C40.372 41.1608 41.1594 42.0345 42.118 42.0345C43.0937 42.0345 43.864 41.1608 43.864 40.0949C43.864 39.029 43.0937 38.1553 42.118 38.1553Z" fill="white"/>
<path d="M50.437 23.4949H27.5C25.5657 23.4949 23.991 25.1025 23.991 27.0945V50.7191C23.991 52.7111 25.5657 54.3187 27.5 54.3187H46.9109L46.0037 51.086L48.1947 53.1654L50.2659 55.1225L53.9461 58.4425V27.0945C53.9461 25.1025 52.3713 23.4949 50.437 23.4949ZM43.8298 46.3157C43.8298 46.3157 43.2136 45.5643 42.7001 44.9003C44.9424 44.2538 45.7983 42.8209 45.7983 42.8209C45.0965 43.2927 44.4289 43.6247 43.8298 43.8519C42.9739 44.2188 42.1523 44.4634 41.3478 44.6032C39.7045 44.9178 38.1982 44.8304 36.9144 44.5858C35.9388 44.3935 35.1 44.114 34.3982 43.8344C34.0045 43.6771 33.5766 43.4849 33.1487 43.2403C33.0973 43.2053 33.046 43.1879 32.9946 43.1529C32.9604 43.1354 32.9433 43.118 32.9261 43.1005C32.618 42.9257 32.4469 42.8034 32.4469 42.8034C32.4469 42.8034 33.2685 44.2013 35.4424 44.8653C34.9289 45.5293 34.2955 46.3157 34.2955 46.3157C30.5126 46.1933 29.0748 43.6596 29.0748 43.6596C29.0748 38.0331 31.5396 33.4724 31.5396 33.4724C34.0045 31.5852 36.3496 31.6377 36.3496 31.6377L36.5208 31.8474C33.4397 32.756 32.0189 34.1364 32.0189 34.1364C32.0189 34.1364 32.3955 33.9267 33.0288 33.6297C34.8604 32.8084 36.3153 32.5813 36.9144 32.5288C37.0172 32.5114 37.1027 32.4939 37.2054 32.4939C38.2496 32.3541 39.4307 32.3191 40.6631 32.4589C42.2892 32.6511 44.0352 33.1404 45.8154 34.1364C45.8154 34.1364 44.4631 32.8259 41.5532 31.9172L41.7928 31.6377C41.7928 31.6377 44.1379 31.5852 46.6028 33.4724C46.6028 33.4724 49.0677 38.0331 49.0677 43.6596C49.0677 43.6596 47.6127 46.1933 43.8298 46.3157Z" fill="white"/>
<path fill-rule="evenodd" clip-rule="evenodd" d="M110.08 166.159C118.408 166.159 125.159 159.408 125.159 151.08C125.159 142.751 118.408 136 110.08 136C101.751 136 95 142.751 95 151.08C95 154.705 96.2795 158.032 98.4116 160.633L96.7741 168.82L107 165.845C107.994 166.051 109.024 166.159 110.08 166.159Z" fill="#F4FBFA"/>
<path d="M257.491 158.065C257.491 157.242 257.198 156.539 256.613 155.956C256.027 155.373 255.321 155.082 254.493 155.082C253.665 155.082 252.958 155.373 252.373 155.956C251.787 156.539 251.494 157.242 251.494 158.065C251.494 158.64 251.643 159.161 251.939 159.627C252.236 160.093 252.634 160.458 253.134 160.723L251.518 166.061C251.44 166.294 251.479 166.511 251.635 166.713C251.791 166.915 251.994 167.016 252.244 167.016H256.742C256.991 167.016 257.195 166.915 257.351 166.713C257.507 166.511 257.546 166.294 257.468 166.061L255.851 160.723C256.351 160.458 256.749 160.093 257.046 159.627C257.343 159.161 257.491 158.64 257.491 158.065ZM248.496 152.098H260.49V147.622C260.49 145.975 259.904 144.569 258.733 143.403C257.561 142.238 256.148 141.655 254.493 141.655C252.837 141.655 251.424 142.238 250.253 143.403C249.082 144.569 248.496 145.975 248.496 147.622V152.098ZM267.986 154.336V167.762C267.986 168.384 267.767 168.912 267.33 169.347C266.892 169.782 266.361 170 265.737 170H243.249C242.624 170 242.093 169.782 241.656 169.347C241.219 168.912 241 168.384 241 167.762V154.336C241 153.714 241.219 153.186 241.656 152.751C242.093 152.316 242.624 152.098 243.249 152.098H243.998V147.622C243.998 144.763 245.029 142.308 247.091 140.257C249.152 138.205 251.619 137.18 254.493 137.18C257.366 137.18 259.834 138.205 261.895 140.257C263.957 142.308 264.987 144.763 264.987 147.622V152.098H265.737C266.361 152.098 266.892 152.316 267.33 152.751C267.767 153.186 267.986 153.714 267.986 154.336Z" fill="white"/>
<path d="M177.002 53.6954C177.002 53.6938 177.003 53.6921 177.003 53.6905C177.002 53.6836 177.002 53.6744 177.002 53.6625C177.002 53.1738 176.976 51.5531 176.976 49.8295C171.817 50.7813 170.482 48.569 170.071 47.4114C169.84 46.8197 168.839 44.9933 167.967 44.5045C167.248 44.1186 166.221 43.1668 167.941 43.1411C169.558 43.1154 170.713 44.6331 171.098 45.2505C172.946 48.3632 175.898 47.4886 177.079 46.9484C177.258 45.6107 177.797 44.7103 178.388 44.1958C173.819 43.6813 169.045 41.9063 169.045 34.0345C169.045 31.7965 169.84 29.9443 171.149 28.5037C170.944 27.9892 170.225 25.8797 171.355 23.05C171.355 23.05 173.074 22.5098 177.002 25.1595C178.644 24.6964 180.39 24.4649 182.135 24.4649C183.88 24.4649 185.626 24.6964 187.269 25.1595C191.196 22.4841 192.915 23.05 192.915 23.05C194.045 25.8797 193.326 27.9892 193.121 28.5037C194.43 29.9443 195.226 31.7707 195.226 34.0345C195.226 41.932 190.426 43.6813 185.857 44.1958C186.601 44.8389 187.243 46.0737 187.243 48.0031C187.243 50.7556 187.217 52.968 187.217 53.6625C187.217 53.6744 187.216 53.6828 187.212 53.688C187.214 53.6905 187.216 53.6929 187.217 53.6954C181.95 57.5366 179.16 55.3074 177.014 53.7046C177.01 53.7079 177.006 53.706 177.004 53.6974C177.003 53.6968 177.002 53.6961 177.002 53.6954Z" fill="white"/>
<defs>
<clipPath id="clip0">
<rect width="32.6654" height="32.8204" fill="white" transform="translate(306 23)"/>
</clipPath>
</defs>
</svg>
