<svg width="397" height="248" viewBox="0 0 397 248" fill="none" xmlns="http://www.w3.org/2000/svg">
<path fill-rule="evenodd" clip-rule="evenodd" d="M44.5308 87.5804H40.5308V206.769C40.5308 229.27 58.7711 247.51 81.2718 247.51C103.772 247.51 122.013 229.27 122.013 206.769V178.017H118.013V206.769C118.013 227.06 101.563 243.51 81.2718 243.51C60.9803 243.51 44.5308 227.06 44.5308 206.769V87.5804Z" fill="black"/>
<path fill-rule="evenodd" clip-rule="evenodd" d="M200.862 87.5804H196.862V206.769C196.862 229.27 215.103 247.51 237.603 247.51C260.104 247.51 278.344 229.27 278.344 206.769V178.017H274.344V206.769C274.344 227.06 257.895 243.51 237.603 243.51C217.312 243.51 200.862 227.06 200.862 206.769V87.5804Z" fill="black"/>
<path fill-rule="evenodd" clip-rule="evenodd" d="M196.652 171.353L200.652 171.353L200.652 42.645C200.652 20.1444 182.412 1.90404 159.911 1.90403C137.411 1.90403 119.17 20.1444 119.17 42.645L119.17 143.746L123.17 143.746L123.17 42.645C123.17 22.3535 139.62 5.90403 159.911 5.90403C180.203 5.90404 196.652 22.3535 196.652 42.645L196.652 171.353Z" fill="black"/>
<path fill-rule="evenodd" clip-rule="evenodd" d="M353.932 78.0608L357.932 78.0608L357.932 42.6448C357.932 20.1441 339.691 1.90379 317.191 1.90379C294.69 1.90379 276.45 20.1441 276.45 42.6448L276.45 143.746L280.45 143.746L280.45 42.6448C280.45 22.3533 296.899 5.90379 317.191 5.90379C337.482 5.90379 353.932 22.3533 353.932 42.6448L353.932 78.0608Z" fill="black"/>
<path d="M84.2718 44.8382C84.2718 67.9493 65.6264 86.6765 42.6359 86.6765C19.6455 86.6765 1 67.9493 1 44.8382C1 21.7271 19.6455 3 42.6359 3C65.6264 3 84.2718 21.7271 84.2718 44.8382Z" fill="black" stroke="black" stroke-width="2"/>
<ellipse cx="278.636" cy="167.838" rx="42.6359" ry="42.8382" fill="black"/>
<ellipse cx="198.636" cy="42.8382" rx="42.6359" ry="42.8382" fill="black"/>
<ellipse cx="353.636" cy="42.8382" rx="42.6359" ry="42.8382" fill="black"/>
<ellipse cx="120.636" cy="167.838" rx="42.6359" ry="42.8382" fill="black"/>
<g clip-path="url(#clip0)">
<path d="M335.257 29.9822C335.257 28.5 335.167 27.0624 335.032 25.5783H341.46L341.683 28.593C342.398 27.572 344.142 25.0687 348.675 25.0687C353.882 25.0687 355.362 28.3625 355.802 29.4727C357.678 25.7178 360.739 25.1152 363.074 25.1152C367.65 25.1152 369.49 27.944 369.984 28.8701C371.195 30.9103 371.109 33.7371 371.109 35.7773V48.5996H364.426V35.2309C364.426 32.7277 364.068 29.9454 360.613 29.9454C356.618 29.9454 356.528 33.7933 356.528 37.2711V48.5996H349.842V35.0817C349.842 33.274 349.797 29.9357 346.117 29.9357C341.944 29.9357 341.944 33.646 341.944 35.2309V48.5996H335.257V29.9822Z" fill="white"/>
<path d="M335.032 53.7499H371.115V59.4501H335.032V53.7499Z" fill="white"/>
</g>
<path d="M39.6016 41.9142C38.5314 41.9142 37.6865 42.8725 37.6865 44.0417C37.6865 45.2109 38.5502 46.1692 39.6016 46.1692C40.6718 46.1692 41.5167 45.2109 41.5167 44.0417C41.5355 42.8725 40.6718 41.9142 39.6016 41.9142ZM46.4547 41.9142C45.3845 41.9142 44.5396 42.8725 44.5396 44.0417C44.5396 45.2109 45.4033 46.1692 46.4547 46.1692C47.5249 46.1692 48.3698 45.2109 48.3698 44.0417C48.3698 42.8725 47.5249 41.9142 46.4547 41.9142Z" fill="white"/>
<path d="M55.5794 25.8334H30.4203C28.2986 25.8334 26.5713 27.5967 26.5713 29.7817V55.695C26.5713 57.88 28.2986 59.6434 30.4203 59.6434H51.7117L50.7166 56.0975L53.1199 58.3784L55.3917 60.525L59.4284 64.1667V29.7817C59.4284 27.5967 57.7011 25.8334 55.5794 25.8334ZM48.3321 50.865C48.3321 50.865 47.6562 50.0409 47.0929 49.3125C49.5525 48.6034 50.4913 47.0317 50.4913 47.0317C49.7215 47.5492 48.9892 47.9134 48.3321 48.1625C47.3933 48.565 46.4921 48.8334 45.6097 48.9867C43.8072 49.3317 42.155 49.2359 40.7468 48.9675C39.6766 48.7567 38.7566 48.45 37.9868 48.1434C37.555 47.9709 37.0856 47.76 36.6162 47.4917C36.5599 47.4534 36.5035 47.4342 36.4472 47.3959C36.4097 47.3767 36.3909 47.3575 36.3721 47.3384C36.0341 47.1467 35.8464 47.0125 35.8464 47.0125C35.8464 47.0125 36.7476 48.5459 39.1321 49.2742C38.5688 50.0025 37.8741 50.865 37.8741 50.865C33.7248 50.7309 32.1476 47.9517 32.1476 47.9517C32.1476 41.78 34.8513 36.7775 34.8513 36.7775C37.555 34.7075 40.1272 34.765 40.1272 34.765L40.315 34.995C36.9354 35.9917 35.377 37.5059 35.377 37.5059C35.377 37.5059 35.7901 37.2759 36.4848 36.95C38.4937 36.0492 40.0897 35.8 40.7468 35.7425C40.8595 35.7234 40.9533 35.7042 41.066 35.7042C42.2113 35.5509 43.5068 35.5125 44.8586 35.6659C46.6423 35.8767 48.5574 36.4134 50.5101 37.5059C50.5101 37.5059 49.0268 36.0684 45.835 35.0717L46.0978 34.765C46.0978 34.765 48.6701 34.7075 51.3737 36.7775C51.3737 36.7775 54.0774 41.78 54.0774 47.9517C54.0774 47.9517 52.4815 50.7309 48.3321 50.865Z" fill="white"/>
<path fill-rule="evenodd" clip-rule="evenodd" d="M120.541 183.081C129.676 183.081 137.081 175.676 137.081 166.541C137.081 157.405 129.676 150 120.541 150C111.405 150 104 157.405 104 166.541C104 170.517 105.403 174.166 107.742 177.019L105.946 186L117.163 182.736C118.253 182.962 119.383 183.081 120.541 183.081Z" fill="white"/>
<path d="M282.089 172.909C282.089 172.006 281.768 171.234 281.125 170.595C280.483 169.956 279.708 169.636 278.8 169.636C277.892 169.636 277.117 169.956 276.475 170.595C275.832 171.234 275.511 172.006 275.511 172.909C275.511 173.54 275.674 174.111 275.999 174.622C276.325 175.134 276.762 175.534 277.31 175.824L275.537 181.679C275.451 181.935 275.494 182.173 275.665 182.395C275.837 182.616 276.059 182.727 276.333 182.727H281.267C281.541 182.727 281.763 182.616 281.935 182.395C282.106 182.173 282.149 181.935 282.063 181.679L280.29 175.824C280.838 175.534 281.275 175.134 281.601 174.622C281.926 174.111 282.089 173.54 282.089 172.909ZM272.222 166.364H285.378V161.455C285.378 159.648 284.735 158.105 283.451 156.827C282.166 155.548 280.616 154.909 278.8 154.909C276.984 154.909 275.434 155.548 274.149 156.827C272.865 158.105 272.222 159.648 272.222 161.455V166.364ZM293.6 168.818V183.545C293.6 184.227 293.36 184.807 292.881 185.284C292.401 185.761 291.819 186 291.133 186H266.467C265.781 186 265.199 185.761 264.719 185.284C264.24 184.807 264 184.227 264 183.545V168.818C264 168.136 264.24 167.557 264.719 167.08C265.199 166.602 265.781 166.364 266.467 166.364H267.289V161.455C267.289 158.318 268.419 155.625 270.681 153.375C272.942 151.125 275.648 150 278.8 150C281.952 150 284.658 151.125 286.919 153.375C289.181 155.625 290.311 158.318 290.311 161.455V166.364H291.133C291.819 166.364 292.401 166.602 292.881 167.08C293.36 167.557 293.6 168.136 293.6 168.818Z" fill="white"/>
<path d="M193.971 58.6692C193.971 58.6674 193.972 58.6656 193.972 58.6638C193.971 58.6562 193.971 58.6461 193.971 58.6331C193.971 58.097 193.942 56.3193 193.942 54.4288C188.283 55.4728 186.819 53.0461 186.369 51.7764C186.115 51.1274 185.017 49.124 184.06 48.5879C183.272 48.1646 182.146 47.1206 184.032 47.0924C185.806 47.0641 187.073 48.7289 187.495 49.4062C189.522 52.8204 192.76 51.861 194.055 51.2685C194.252 49.8012 194.843 48.8136 195.491 48.2493C190.479 47.6849 185.243 45.7379 185.243 37.1035C185.243 34.6487 186.115 32.617 187.551 31.0369C187.326 30.4725 186.538 28.1587 187.777 25.0549C187.777 25.0549 189.663 24.4623 193.971 27.3687C195.772 26.8608 197.687 26.6068 199.601 26.6068C201.516 26.6068 203.43 26.8608 205.232 27.3687C209.54 24.4341 211.426 25.0549 211.426 25.0549C212.665 28.1587 211.877 30.4725 211.651 31.0369C213.087 32.617 213.96 34.6204 213.96 37.1035C213.96 45.7662 208.695 47.6849 203.684 48.2493C204.5 48.9547 205.204 50.3091 205.204 52.4254C205.204 55.4446 205.176 57.8713 205.176 58.6331C205.176 58.6461 205.174 58.6553 205.171 58.661C205.172 58.6638 205.174 58.6665 205.176 58.6692C199.398 62.8825 196.338 60.4374 193.984 58.6792C193.979 58.6829 193.976 58.6808 193.973 58.6714C193.972 58.6707 193.971 58.6699 193.971 58.6692Z" fill="white"/>
<defs>
<clipPath id="clip0">
<rect width="35.83" height="36" fill="white" transform="translate(335 25)"/>
</clipPath>
</defs>
</svg>
